<?xml version="1.0" encoding="UTF-8"?>
<svg version="1.1" xmlns="http://www.w3.org/2000/svg" width="403" height="62">
<path d="M0 0 C4.875 0.875 4.875 0.875 6 2 C6.14115161 4.67058851 6.04247107 7.32432238 6 10 C8.475 10.99 8.475 10.99 11 12 C11 11.34 11 10.68 11 10 C15.875 10.875 15.875 10.875 17 12 C17.4200728 17.76849965 16.23541945 22.46389326 14.5 27.9375 C14.26152344 28.71673828 14.02304687 29.49597656 13.77734375 30.29882812 C13.19357822 32.20190376 12.59800024 34.10134922 12 36 C14.47504737 35.36970855 14.47504737 35.36970855 17 34 C18.3247371 31.66674903 18.3247371 31.66674903 19.0625 28.875 C23.81869622 14.34006436 23.81869622 14.34006436 30 10 C33.71488255 9.06022316 37.17688836 8.68189826 41 9 C43.7070838 10.86917691 44.56213467 12.12426934 46 15 C47.0202566 23.39621004 45.39042211 32.06177649 40.5625 39.09375 C37.1449475 42.57702466 34.15313876 43.40555771 29.3125 43.625 C25.61651428 43.43207767 24.33950934 43.25265811 21.3125 41 C20.879375 40.34 20.44625 39.68 20 39 C19.34 39.99 18.68 40.98 18 42 C13.52745503 43.49084832 9.47254497 43.49084832 5 42 C4.01 42.495 4.01 42.495 3 43 C-2.15875578 43.2537093 -5.21166203 42.91533519 -10 41 C-10.99 41.66 -11.98 42.32 -13 43 C-15.15625 43.23046875 -15.15625 43.23046875 -17.5 43.1875 C-18.2734375 43.18105469 -19.046875 43.17460938 -19.84375 43.16796875 C-22 43 -22 43 -25 42 C-25.99 42.495 -25.99 42.495 -27 43 C-33.22668659 43.57654505 -33.22668659 43.57654505 -36.1953125 41.36328125 C-39.62964866 36.86593628 -38.61299338 31.3869115 -38 26 C-36.4097693 19.69010063 -33.98121152 15.17344749 -29 11 C-28.67 10.67 -28.34 10.34 -28 10 C-25.50944578 9.92741554 -23.03363503 10.0036364 -20.54296875 10.0625 C-18.02687185 10.1065331 -18.02687185 10.1065331 -15.80078125 9.375 C-15.20652344 9.25125 -14.61226563 9.1275 -14 9 C-12 11 -12 11 -11.5625 14.625 C-11.67162414 22.00906664 -14.62600322 29.08997365 -17 36 C-14.47653355 35.65193566 -13.24130517 35.24070936 -11.41796875 33.421875 C-9.52806025 30.19393211 -8.42308972 26.7998608 -7.3125 23.25 C-7.08755859 22.55261719 -6.86261719 21.85523437 -6.63085938 21.13671875 C-6.08036634 19.42667656 -5.53923763 17.71362471 -5 16 C-5.99 15.67 -6.98 15.34 -8 15 C-8.33 13.35 -8.66 11.7 -9 10 C-7.02 9.67 -5.04 9.34 -3 9 C-2.01 6.03 -1.02 3.06 0 0 Z M33 15 C29.41378612 21.70239002 26.27320213 28.18692285 27 36 C27.66 36.66 28.32 37.32 29 38 C31.04588119 37.93423858 31.04588119 37.93423858 33 37 C36.65228585 31.19931071 38.71050224 24.89227361 39 18 C38.34 17.01 37.68 16.02 37 15 C35.68 15 34.36 15 33 15 Z M-24 16 C-28.4701109 20.93253616 -31.17389319 26.27823528 -31.1875 33 C-31.125625 33.99 -31.06375 34.98 -31 36 C-29.68 36.33 -28.36 36.66 -27 37 C-23.39748221 30.54031293 -21.58570264 24.20773928 -20 17 C-21.32 16.67 -22.64 16.34 -24 16 Z M4 16 C1.29928888 22.27980887 -0.70024676 28.28460827 -2 35 C0.39719432 35.67958603 0.39719432 35.67958603 3 36 C5.72783111 33.27216889 6.2024628 30.19456312 7.125 26.5625 C7.30675781 25.88123047 7.48851562 25.19996094 7.67578125 24.49804688 C8.43511979 21.58344292 9 19.02438796 9 16 C7.35 16 5.7 16 4 16 Z " fill="#ECECEC" transform="translate(291,10)"/>
<path d="M0 0 C0.680625 0.07863281 1.36125 0.15726563 2.0625 0.23828125 C4 0.6875 4 0.6875 7 2.6875 C8.42669866 8.70001579 8.12522143 12.16627548 5 17.6875 C1.37467312 22.2191586 -1.51627266 23.50473528 -7 24.6875 C-1.40693931 26.74209372 1.40693931 26.74209372 7 24.6875 C7.17015625 23.9140625 7.3403125 23.140625 7.515625 22.34375 C9.26867273 14.80937463 10.88944491 7.96619321 16.3125 2.25 C19.65619234 0.30599283 22.14189969 -0.1747107 26 -0.3125 C29.17338346 0.60425522 30.66340837 1.35090837 33 3.6875 C33.75752548 8.5849903 33.53344305 12.62061391 31.3125 17.0625 C25.5813282 23.56815448 25.5813282 23.56815448 20.6875 23.9375 C19.800625 23.855 18.91375 23.7725 18 23.6875 C18 24.3475 18 25.0075 18 25.6875 C22.32058125 26.50692058 25.06050351 26.95339523 29.3125 25.75 C32.97266624 22.94103521 33.751745 19.95029084 35 15.6875 C35.61816439 13.72629987 36.24928817 11.76989657 36.88842773 9.81542969 C37.33470857 8.44797736 37.77187001 7.0775122 38.19946289 5.70410156 C38.74324419 4.01272007 39.36586924 2.34712274 40 0.6875 C40.66 0.3575 41.32 0.0275 42 -0.3125 C44.125 0.625 44.125 0.625 46 1.6875 C46.99 1.0275 47.98 0.3675 49 -0.3125 C51.19140625 -0.39453125 51.19140625 -0.39453125 53.5625 -0.125 C54.74005859 -0.01091797 54.74005859 -0.01091797 55.94140625 0.10546875 C58 0.6875 58 0.6875 60 3.6875 C59.73798286 11.67902289 57.323309 19.09081987 55 26.6875 C58.63987391 25.51719003 58.63987391 25.51719003 61.36328125 22.9609375 C61.67652344 22.33445312 61.98976563 21.70796875 62.3125 21.0625 C62.869375 19.94875 63.42625 18.835 64 17.6875 C64.66 18.0175 65.32 18.3475 66 18.6875 C66.6592672 23.9616376 65.06928516 26.78289559 62.2890625 31.05078125 C61 32.6875 61 32.6875 59 33.6875 C56.94140625 33.92578125 56.94140625 33.92578125 54.5625 34 C53.78003906 34.03738281 52.99757813 34.07476562 52.19140625 34.11328125 C50 33.6875 50 33.6875 48.2109375 31.9453125 C45.56296054 27.00811674 47.56212168 21.28893403 48.96875 16.14453125 C49.93623455 12.97601935 50.94206988 9.82684613 52 6.6875 C45.46663257 9.93233299 44.23483979 15.07513898 42 21.6875 C40.87251873 25.66288216 39.88040234 29.65053319 39 33.6875 C38.236875 33.5225 37.47375 33.3575 36.6875 33.1875 C33.29547826 32.55642619 31.29456698 32.58931101 28 33.6875 C17.48478702 34.60121509 17.48478702 34.60121509 12.75 31.6875 C12.1725 31.0275 11.595 30.3675 11 29.6875 C7.5034401 31.04220692 7.5034401 31.04220692 4.1640625 32.734375 C-0.00993896 34.57274387 -4.54206941 34.22863608 -9 33.6875 C-12.15310942 32.39203644 -14.43834289 30.81081421 -16 27.6875 C-16.83944244 18.7654261 -16.50274043 11.05827599 -11 3.6875 C-7.45859541 0.6410555 -4.66648748 -0.59214898 0 0 Z M-4 5.6875 C-4.67354499 7.12179001 -5.33859701 8.56007057 -6 10 C-6.37125 10.80050781 -6.7425 11.60101563 -7.125 12.42578125 C-8.18040667 14.74963959 -8.18040667 14.74963959 -8 17.6875 C-4.00377939 16.79945098 -2.39414359 16.27235823 -0.0625 12.8125 C0.98072075 9.74420368 1.23512958 8.60689719 0 5.6875 C-1.32 5.6875 -2.64 5.6875 -4 5.6875 Z M22 5.6875 C21.32332002 6.93210783 20.65905281 8.18346896 20 9.4375 C19.62875 10.13359375 19.2575 10.8296875 18.875 11.546875 C17.74775351 13.91917757 17.74775351 13.91917757 18 17.6875 C21.90604537 16.42067448 23.90166803 15.25466435 26 11.6875 C26.88693303 9.64644361 26.88693303 9.64644361 27 7.6875 C26.34 7.0275 25.68 6.3675 25 5.6875 C24.01 5.6875 23.02 5.6875 22 5.6875 Z " fill="#E9E9E9" transform="translate(57,19.3125)"/>
<path d="M0 0 C0.763125 0.37125 1.52625 0.7425 2.3125 1.125 C3.6428125 1.558125 3.6428125 1.558125 5 2 C5.99 1.34 6.98 0.68 8 0 C10.19140625 -0.046875 10.19140625 -0.046875 12.5625 0.25 C13.74005859 0.38148437 13.74005859 0.38148437 14.94140625 0.515625 C17 1 17 1 19 3 C19.45358821 11.30066424 16.64653499 19.25734648 14 27 C15.98 26.67 17.96 26.34 20 26 C20.17015625 25.36835937 20.3403125 24.73671875 20.515625 24.0859375 C21.03166364 22.18098634 21.55296747 20.27745746 22.078125 18.375 C22.73124108 15.98393097 23.36471406 13.58745667 23.984375 11.1875 C24.31953125 9.929375 24.6546875 8.67125 25 7.375 C25.309375 6.18648437 25.61875 4.99796875 25.9375 3.7734375 C26.4634375 2.40058594 26.4634375 2.40058594 27 1 C27.99 0.67 28.98 0.34 30 0 C30.99 0.99 31.98 1.98 33 3 C33.474375 2.484375 33.94875 1.96875 34.4375 1.4375 C38.26789517 -0.71125827 41.80466468 0.08094074 46 1 C47 2 47 2 47.25 5.875 C47.21930686 10.67847706 46.09612124 14.86228274 44.65625 19.421875 C43.98600016 22.05499936 43.88325707 24.29545547 44 27 C45.98706733 26.58013079 45.98706733 26.58013079 48 25 C49.29240316 22.35457585 50.09287625 19.56541249 50.9375 16.75 C52.7413308 10.75778713 54.50342397 6.46225102 59 2 C61.58952747 0.71504508 64.14503504 0.37718033 67 0 C67.9075 -0.144375 68.815 -0.28875 69.75 -0.4375 C72 0 72 0 74.25 2.0625 C77.70958871 7.86966677 77.18190998 13.15470294 75.72265625 19.50390625 C74.19554551 24.77862931 72.37910678 28.68656497 68.375 32.5 C63.90022136 34.48879051 59.8352136 34.71571148 55 34 C54.01 33.34 53.02 32.68 52 32 C52 31.34 52 30.68 52 30 C51.38125 30.66 50.7625 31.32 50.125 32 C45.8650866 34.72634458 41.95598056 34.75436164 37 34 C34.61212571 31.61212571 34.67917661 31.02226704 34.625 27.75 C34.7259872 20.86267286 36.90243145 14.49871685 39 8 C37.68 8 36.36 8 35 8 C33.30669716 12.08430915 31.88105692 16.23992397 30.5 20.4375 C30.28730469 21.08009766 30.07460937 21.72269531 29.85546875 22.38476562 C29.23608554 24.25621489 28.61802369 26.12810133 28 28 C27.33400836 30.00022488 26.66759381 32.00030929 26 34 C25.05125 33.814375 24.1025 33.62875 23.125 33.4375 C20.10131207 32.71313368 20.10131207 32.71313368 18 34 C15.94140625 34.2734375 15.94140625 34.2734375 13.5625 34.375 C12.78003906 34.42398438 11.99757812 34.47296875 11.19140625 34.5234375 C9 34 9 34 7.17578125 31.83203125 C5.78284861 28.47696093 5.91720233 26.8467697 6.625 23.3125 C6.934375 21.75208984 6.934375 21.75208984 7.25 20.16015625 C8.30676122 15.70744881 9.55878555 11.34285954 11 7 C7.20896958 8.63148295 5.84676681 10.38460648 4.08203125 14.16015625 C1.61826112 20.62644103 -0.15249548 27.33686893 -2 34 C-6.875 33.125 -6.875 33.125 -8 32 C-8.60015231 24.82353082 -6.74418839 18.85519322 -4.5625 12.0625 C-4.23701172 11.00998047 -3.91152344 9.95746094 -3.57617188 8.87304688 C-1.16171288 1.16171288 -1.16171288 1.16171288 0 0 Z M62.5 7.4375 C58.57515996 14.14243507 57.63413209 20.31677386 58 28 C59.65 28.33 61.3 28.66 63 29 C63.81752303 27.41925436 64.62881997 25.83528777 65.4375 24.25 C65.88996094 23.36828125 66.34242188 22.4865625 66.80859375 21.578125 C68.93947853 16.96703006 69.28317231 13.09710158 69 8 C68.34 7.34 67.68 6.68 67 6 C64.01472806 5.65404732 64.01472806 5.65404732 62.5 7.4375 Z " fill="#EDEDED" transform="translate(155,19)"/>
<path d="M0 0 C1.2065625 0.0309375 1.2065625 0.0309375 2.4375 0.0625 C3.23703138 3.34946233 3.53408936 4.77273192 2.4375 8.0625 C2.746875 8.990625 3.05625 9.91875 3.375 10.875 C5.25680196 16.70984902 4.58860181 23.01003306 4.4375 29.0625 C7.06419829 26.5212228 8.98890574 24.44255327 10.4375 21.0625 C11.0975 21.0625 11.7575 21.0625 12.4375 21.0625 C13.51149326 23.70617572 13.70709862 25.4149594 12.6015625 28.0703125 C9.86805502 32.7886598 7.64609842 35.02408093 2.4375 37.0625 C-1 37.390625 -1 37.390625 -4.5625 37.3125 C-5.738125 37.29703125 -6.91375 37.2815625 -8.125 37.265625 C-11.5625 37.0625 -11.5625 37.0625 -14.9375 36.484375 C-15.80375 36.34515625 -16.67 36.2059375 -17.5625 36.0625 C-17.8925 36.3925 -18.2225 36.7225 -18.5625 37.0625 C-20.5234375 37.265625 -20.5234375 37.265625 -22.9375 37.3125 C-23.72898437 37.33828125 -24.52046875 37.3640625 -25.3359375 37.390625 C-27.5625 37.0625 -27.5625 37.0625 -29.3515625 36.046875 C-31.63691566 32.30184466 -31.00341425 28.03406777 -30.08203125 23.9140625 C-29.46640654 21.77310012 -28.78446586 19.66985982 -28.0625 17.5625 C-27.70478516 16.47195312 -27.70478516 16.47195312 -27.33984375 15.359375 C-26.75789824 13.59026065 -26.16169543 11.82584654 -25.5625 10.0625 C-31.78833465 13.23788389 -33.26485083 17.7143559 -35.5625 24.0625 C-36.71103652 28.03433146 -37.6948453 32.02049882 -38.5625 36.0625 C-40.375 36.75 -40.375 36.75 -42.5625 37.0625 C-44.20483398 35.82983398 -44.20483398 35.82983398 -45.5625 34.0625 C-45.3981032 26.80759764 -43.28577738 20.33922699 -41 13.5 C-40.67064453 12.49130859 -40.34128906 11.48261719 -40.00195312 10.44335938 C-39.19653418 7.98041158 -38.38327961 5.52036243 -37.5625 3.0625 C-36.2425 3.3925 -34.9225 3.7225 -33.5625 4.0625 C-33.5625 4.7225 -33.5625 5.3825 -33.5625 6.0625 C-32.923125 5.546875 -32.28375 5.03125 -31.625 4.5 C-27.43612085 2.53379142 -24.01063852 3.06994016 -19.5625 4.0625 C-17.97821031 5.64678969 -18.35407308 7.24105561 -18.3125 9.4375 C-18.33431933 14.49958427 -19.43300069 18.82767101 -21.00390625 23.6171875 C-21.59542006 26.20661157 -21.43205998 27.5862696 -20.5625 30.0625 C-20.2325 29.7325 -19.9025 29.4025 -19.5625 29.0625 C-19.60375 27.94875 -19.645 26.835 -19.6875 25.6875 C-19.5625 22.0625 -19.5625 22.0625 -18.25 20.125 C-16.5625 19.0625 -16.5625 19.0625 -13.5625 19.0625 C-13.11596069 18.25244507 -13.11596069 18.25244507 -12.66040039 17.42602539 C-11.31702698 14.99137423 -9.97104945 12.5581726 -8.625 10.125 C-8.15642578 9.27486328 -7.68785156 8.42472656 -7.20507812 7.54882812 C-6.75712891 6.73994141 -6.30917969 5.93105469 -5.84765625 5.09765625 C-5.43394775 4.3487915 -5.02023926 3.59992676 -4.59399414 2.82836914 C-2.98438227 0.07278981 -2.98438227 0.07278981 0 0 Z M-4.5625 13.0625 C-5.95756477 15.46943578 -7.32819383 17.88548799 -8.6875 20.3125 C-9.28498047 21.33537109 -9.28498047 21.33537109 -9.89453125 22.37890625 C-11.18018994 24.61922308 -11.18018994 24.61922308 -12.5625 28.0625 C-11.98380594 30.52445676 -11.98380594 30.52445676 -10.5625 32.0625 C-7.81612183 31.68368922 -6.76200942 31.28417713 -4.875 29.1875 C-2.60370934 25.51017226 -2.45027934 22.60125577 -2.5 18.375 C-2.50902344 17.38113281 -2.51804687 16.38726562 -2.52734375 15.36328125 C-2.53894531 14.60402344 -2.55054688 13.84476563 -2.5625 13.0625 C-3.2225 13.0625 -3.8825 13.0625 -4.5625 13.0625 Z " fill="#ECECEC" transform="translate(380.5625,15.9375)"/>
<path d="M0 0 C2.4375 0.375 2.4375 0.375 5 1 C7.66726524 6.33453047 5.56387753 12.45620089 3.8828125 17.83203125 C3.6655954 18.54985275 3.4483783 19.26767426 3.22457886 20.00724792 C2.76684973 21.51203626 2.30438597 23.01539185 1.83740234 24.51733398 C1.12272895 26.81981669 0.42557716 29.12709137 -0.26953125 31.43554688 C-0.71772789 32.90135458 -1.16691184 34.36686085 -1.6171875 35.83203125 C-1.82560272 36.52158401 -2.03401794 37.21113678 -2.24874878 37.92158508 C-3.17455844 40.87380636 -3.77905115 42.77905115 -6 45 C-9 45.25 -9 45.25 -12 45 C-14.36662605 42.63337395 -14.39981087 41.67408559 -14.8515625 38.4296875 C-14.96838379 37.62257324 -15.08520508 36.81545898 -15.20556641 35.98388672 C-15.34397949 34.9579541 -15.48239258 33.93202148 -15.625 32.875 C-16.07875 29.61625 -16.5325 26.3575 -17 23 C-18.98 30.59 -20.96 38.18 -23 46 C-28 45 -28 45 -29 44 C-29.29034496 38.35161128 -28.63031371 33.51352183 -27.06640625 28.0703125 C-26.77031715 26.99570267 -26.77031715 26.99570267 -26.46824646 25.89938354 C-25.84252805 23.63847554 -25.20253222 21.38189218 -24.5625 19.125 C-24.13647693 17.588789 -23.71133868 16.05233232 -23.28710938 14.515625 C-20.1942369 3.38847379 -20.1942369 3.38847379 -19 1 C-16.125 1.3125 -16.125 1.3125 -13 2 C-10.96375905 5.05436143 -10.68046053 6.15483554 -10.3671875 9.66796875 C-10.24150391 11.00698242 -10.24150391 11.00698242 -10.11328125 12.37304688 C-10.03464844 13.30181641 -9.95601562 14.23058594 -9.875 15.1875 C-9.78863281 16.12787109 -9.70226562 17.06824219 -9.61328125 18.03710938 C-9.40126601 20.35749837 -9.19714571 22.67830819 -9 25 C-7.18474888 22.27712332 -6.41884869 20.47927613 -5.52734375 17.40234375 C-5.26759766 16.51869141 -5.00785156 15.63503906 -4.74023438 14.72460938 C-4.47533203 13.80486328 -4.21042969 12.88511719 -3.9375 11.9375 C-3.4065226 10.11282228 -2.87404286 8.28858087 -2.33984375 6.46484375 C-2.10644287 5.656521 -1.87304199 4.84819824 -1.63256836 4.01538086 C-1 2 -1 2 0 0 Z " fill="#F4F4F4" transform="translate(38,7)"/>
<path d="M0 0 C2.5 0.3125 2.5 0.3125 5 1 C6.20217503 3.40435006 6.03897118 4.68381369 5.87890625 7.3515625 C5.83056641 8.20234375 5.78222656 9.053125 5.73242188 9.9296875 C5.64831055 11.26386719 5.64831055 11.26386719 5.5625 12.625 C5.51029297 13.5221875 5.45808594 14.419375 5.40429688 15.34375 C5.2744565 17.56284012 5.13948661 19.78149871 5 22 C5.37753418 21.05362671 5.37753418 21.05362671 5.76269531 20.08813477 C6.90935843 17.23960707 8.07928021 14.40122025 9.25 11.5625 C9.84361328 10.07266602 9.84361328 10.07266602 10.44921875 8.55273438 C11.03896484 7.13637695 11.03896484 7.13637695 11.640625 5.69140625 C11.99672852 4.81685791 12.35283203 3.94230957 12.71972656 3.04125977 C14 1 14 1 16.14746094 0.20678711 C17.06446777 0.10442749 17.06446777 0.10442749 18 0 C20.259716 3.389574 20.16782751 4.88819108 19.55224609 8.81982422 C18.59862915 12.58454541 16.78703612 15.74398218 14.8125 19.0625 C14.40612305 19.76060791 13.99974609 20.45871582 13.58105469 21.17797852 C6.70216721 32.77759102 6.70216721 32.77759102 1.375 35.1875 C-1 35 -1 35 -3.375 33.75 C-6.06045899 29.2053771 -4.7936751 25.06731023 -4 20 C-3.76114704 18.36336458 -3.52291177 16.72663895 -3.28515625 15.08984375 C-1.21308456 1.21308456 -1.21308456 1.21308456 0 0 Z M3 24 C4 26 4 26 4 26 Z " fill="#EFEFEF" transform="translate(236,19)"/>
<path d="M0 0 C2.86724686 0.57344937 3.8614515 0.8614515 6 3 C6.46646316 8.53185279 5.37978624 13.11321112 3.8125 18.33984375 C3.59053955 19.10680069 3.3685791 19.87375763 3.13989258 20.66395569 C2.43530583 23.09111152 1.71789279 25.51425047 1 27.9375 C0.51737378 29.59154752 0.03559426 31.24584236 -0.4453125 32.90039062 C-1.62043547 36.93651983 -2.80706932 40.96909993 -4 45 C-5.98 44.67 -7.96 44.34 -10 44 C-11.37342196 38.58954985 -10.47425705 34.80517789 -8.9453125 29.609375 C-8.61380692 28.43063812 -8.61380692 28.43063812 -8.27560425 27.22808838 C-7.57030455 24.73193509 -6.84769777 22.24116474 -6.125 19.75 C-5.64604139 18.06020554 -5.16816519 16.37010389 -4.69140625 14.6796875 C-1.2137109 2.42742179 -1.2137109 2.42742179 0 0 Z " fill="#F2F2F2" transform="translate(145,7)"/>
<path d="M0 0 C4.875 0.875 4.875 0.875 6 2 C6.36090226 9.45864662 6.36090226 9.45864662 4 13 C-0.875 12.125 -0.875 12.125 -2 11 C-1.9140625 9.00390625 -1.9140625 9.00390625 -1.625 6.5625 C-1.53476562 5.75941406 -1.44453125 4.95632812 -1.3515625 4.12890625 C-1 2 -1 2 0 0 Z " fill="#E6E6E6" transform="translate(306,6)"/>
</svg>
