<?xml version="1.0" encoding="UTF-8"?>
<svg version="1.1" xmlns="http://www.w3.org/2000/svg" width="394" height="58">
<path d="M0 0 C2.9375 0.375 2.9375 0.375 6 1 C7 3 7 3 6.875 6 C6.91625 6.99 6.9575 7.98 7 9 C7.99 9.66 8.98 10.32 10 11 C10.33 10.67 10.66 10.34 11 10 C13.4375 9.75 13.4375 9.75 16 10 C18.95357346 14.43036019 17.95346201 17.9059792 17 23 C15.80770071 27.38302734 14.45039822 31.69602761 13 36 C15.79211426 34.98785858 16.80612195 34.39987347 18.125 31.6796875 C18.41375 30.75414063 18.7025 29.82859375 19 28.875 C23.95019687 14.15923965 23.95019687 14.15923965 30 10 C34.02870667 9.06052108 37.88214855 8.49588889 42 9 C46.47075109 12.38924061 46.94569823 15.72849117 48 21 C49.32 17.04 50.64 13.08 52 9 C53.98 9.66 55.96 10.32 58 11 C58.99 10.34 59.98 9.68 61 9 C63.19140625 8.953125 63.19140625 8.953125 65.5625 9.25 C66.74005859 9.38148437 66.74005859 9.38148437 67.94140625 9.515625 C70 10 70 10 72 12 C72.54128467 16.66972706 72.1732849 21.45352102 71 26 C73.94727535 25.89830839 73.94727535 25.89830839 77 25 C78.0524313 22.77611906 78.0524313 22.77611906 79 20 C80.16131528 17.73637391 81.3504422 15.48686659 82.5625 13.25 C83.18253906 12.10015625 83.80257812 10.9503125 84.44140625 9.765625 C86 7 86 7 87 6 C89.4375 5.8125 89.4375 5.8125 92 6 C92.99 6.99 92.99 6.99 94 8 C93.835 9.051875 93.67 10.10375 93.5 11.1875 C92.74716496 14.93423289 92.74716496 14.93423289 93.9375 18.1875 C95.41138641 23.47615125 95.16123073 28.54502689 95 34 C97.29113732 31.8092961 98.6975667 29.90542812 100 27 C100.99 27.33 101.98 27.66 103 28 C103.81640625 29.80859375 103.81640625 29.80859375 104 32 C103.21484375 34.03515625 103.21484375 34.03515625 101.9375 36.0625 C101.33228516 37.06990234 101.33228516 37.06990234 100.71484375 38.09765625 C97.4484145 41.72123494 94.10926914 42.9013983 89.30859375 43.328125 C88.03113281 43.30234375 86.75367188 43.2765625 85.4375 43.25 C84.15746094 43.23453125 82.87742187 43.2190625 81.55859375 43.203125 C78.58244525 43.03324605 75.90774727 42.58479833 73 42 C72.67 42.33 72.34 42.66 72 43 C69.8203125 43.203125 69.8203125 43.203125 67.125 43.25 C66.24070312 43.27578125 65.35640625 43.3015625 64.4453125 43.328125 C62 43 62 43 60.1796875 41.984375 C57.94225512 38.22074703 58.55985337 33.96813535 59.48046875 29.8515625 C60.09609346 27.71060012 60.77803414 25.60735982 61.5 23.5 C61.73847656 22.77296875 61.97695313 22.0459375 62.22265625 21.296875 C62.80460176 19.52776065 63.40080457 17.76334654 64 16 C59.51591421 19.03688085 58.02968341 21.57148904 56.375 26.6875 C55.76205078 28.53794922 55.76205078 28.53794922 55.13671875 30.42578125 C54.76160156 31.60527344 54.38648438 32.78476562 54 34 C53.3977626 35.79231608 52.79395514 37.58410666 52.1875 39.375 C51.795625 40.57125 51.40375 41.7675 51 43 C48.125 42.8125 48.125 42.8125 45 42 C43.625 39.4375 43.625 39.4375 43 37 C42.63390625 37.433125 42.2678125 37.86625 41.890625 38.3125 C38.05261187 42.26017065 35.30544434 43.46136934 29.75 43.5625 C24.56167698 43.46373751 24.56167698 43.46373751 22.140625 41.46484375 C21.76421875 40.98144531 21.3878125 40.49804688 21 40 C20.01 40.7425 20.01 40.7425 19 41.5 C14.98965941 43.50517029 12.45671818 43.29224382 8 43 C7.34 42.67 6.68 42.34 6 42 C5.01 42.495 5.01 42.495 4 43 C1.9765625 43.16796875 1.9765625 43.16796875 -0.375 43.1875 C-1.14585937 43.20167969 -1.91671875 43.21585938 -2.7109375 43.23046875 C-5.21834888 42.97801607 -6.83261902 42.25193467 -9 41 C-9.99 41.66 -10.98 42.32 -12 43 C-15.63054181 43.45926914 -19.28098342 43.37031516 -22.9375 43.375 C-23.93974609 43.39949219 -24.94199219 43.42398438 -25.97460938 43.44921875 C-33.1853595 43.47808099 -33.1853595 43.47808099 -36.67578125 41.4296875 C-38.504813 38.07376494 -38.39065764 35.54775624 -38.25 31.75 C-38.21390625 30.48671875 -38.1778125 29.2234375 -38.140625 27.921875 C-38.09421875 26.95765625 -38.0478125 25.9934375 -38 25 C-38.36351562 25.71285156 -38.72703125 26.42570312 -39.1015625 27.16015625 C-46.77202421 41.7733692 -46.77202421 41.7733692 -53.125 44.1875 C-56 44 -56 44 -58.21875 42.484375 C-60.34349853 39.52090995 -60.22076171 37.80877876 -59.74169922 34.26147461 C-59.62068848 33.53581299 -59.49967773 32.81015137 -59.375 32.0625 C-59.21475342 30.94210327 -59.21475342 30.94210327 -59.05126953 29.79907227 C-58.72182063 27.52897096 -58.36271773 25.26499288 -58 23 C-57.8002508 21.66433527 -57.60222062 20.32841185 -57.40625 18.9921875 C-56.95772952 15.99105784 -56.48956181 12.99466 -56 10 C-54.25 9.25 -54.25 9.25 -52 9 C-49.734375 10.421875 -49.734375 10.421875 -48 13 C-47.87085522 15.92336818 -47.9305751 18.38024615 -48.25 21.25 C-48.31574219 21.99507812 -48.38148438 22.74015625 -48.44921875 23.5078125 C-48.61367811 25.34035965 -48.80428889 27.17052655 -49 29 C-48.51789063 27.89140625 -48.03578125 26.7828125 -47.5390625 25.640625 C-46.90109778 24.17705887 -46.26307384 22.71351856 -45.625 21.25 C-45.30789062 20.52039063 -44.99078125 19.79078125 -44.6640625 19.0390625 C-44.3546875 18.33007812 -44.0453125 17.62109375 -43.7265625 16.890625 C-43.44377441 16.24125977 -43.16098633 15.59189453 -42.86962891 14.92285156 C-41.96411991 12.92066492 -40.99481594 10.95913944 -40 9 C-37.11424181 9.39803561 -36.17810487 9.79009069 -34.25 12.0625 C-33.8375 12.701875 -33.425 13.34125 -33 14 C-32.32195312 13.35804687 -31.64390625 12.71609375 -30.9453125 12.0546875 C-27.39752745 9.57970748 -25.16189867 9.35254239 -20.875 9.125 C-19.65554688 9.04507812 -18.43609375 8.96515625 -17.1796875 8.8828125 C-14 9 -14 9 -11 11 C-10.1930388 18.03209047 -11.8967359 23.55433862 -14.22265625 30.1796875 C-15.2942304 33.04554101 -15.2942304 33.04554101 -14 36 C-10.34993367 31.98336718 -8.79547347 28.26617854 -7.25 23.1875 C-6.91935547 22.14819336 -6.91935547 22.14819336 -6.58203125 21.08789062 C-6.04496973 19.39497932 -5.52111292 17.69788842 -5 16 C-5.99 15.67 -6.98 15.34 -8 15 C-8.495 12.525 -8.495 12.525 -9 10 C-7.02 9.67 -5.04 9.34 -3 9 C-2.01 6.03 -1.02 3.06 0 0 Z M34 15 C30.10490645 22.27966513 27.65600831 28.57220371 28 37 C29.32 37.33 30.64 37.66 32 38 C35.99967036 32.8969723 38.00099905 27.4141463 39 21 C38.64193468 18.2542798 38.64193468 18.2542798 38 16 C36.68 15.67 35.36 15.34 34 15 Z M-23 16 C-27.4701109 20.93253616 -30.17389319 26.27823528 -30.1875 33 C-30.125625 33.99 -30.06375 34.98 -30 36 C-28.68 36 -27.36 36 -26 36 C-25.18025737 33.96123051 -24.3695193 31.91883925 -23.5625 29.875 C-23.11003906 28.73804688 -22.65757812 27.60109375 -22.19140625 26.4296875 C-21.08960073 23.25793259 -20.43904226 20.32057252 -20 17 C-20.99 16.67 -21.98 16.34 -23 16 Z M5 16 C0.67342446 25.69866476 0.67342446 25.69866476 -1 36 C0.65 35.67 2.3 35.34 4 35 C5.26935673 31.28957264 6.46755055 27.55912547 7.625 23.8125 C7.88539063 22.97332031 8.14578125 22.13414063 8.4140625 21.26953125 C9.12498941 18.90653244 9.12498941 18.90653244 9 16 C7.68 16 6.36 16 5 16 Z M86 19 C84.60493523 21.40693578 83.23430617 23.82298799 81.875 26.25 C81.27751953 27.27287109 81.27751953 27.27287109 80.66796875 28.31640625 C79.38231006 30.55672308 79.38231006 30.55672308 78 34 C78.57869406 36.46195676 78.57869406 36.46195676 80 38 C82.85572721 37.01526648 83.97012206 36.0416157 85.75 33.5625 C87.46879304 28.66393985 87.24690013 24.1391805 87 19 C86.67 19 86.34 19 86 19 Z M46 25 C47 28 47 28 47 28 Z M69 28 C68.67 30.64 68.34 33.28 68 36 C68.99 35.67 69.98 35.34 71 35 C70.67 32.69 70.34 30.38 70 28 C69.67 28 69.34 28 69 28 Z M45 29 C46 31 46 31 46 31 Z M44 32 C45 35 45 35 45 35 Z " fill="#000000" transform="translate(287,7)"/>
<path d="M0 0 C1.16015625 0.10054687 1.16015625 0.10054687 2.34375 0.203125 C4.93195424 0.85955361 5.88361289 1.64770511 7.5 3.75 C9.01567344 9.37964419 8.31201527 12.68837251 5.5 17.75 C1.48039216 22.25980392 1.48039216 22.25980392 -1.5 23.75 C-3.49960012 23.789992 -5.50047242 23.79346799 -7.5 23.75 C-7.17 24.41 -6.84 25.07 -6.5 25.75 C-1.62348635 27.14328961 1.76093369 26.36128254 6.5 24.75 C6.67015625 23.9765625 6.8403125 23.203125 7.015625 22.40625 C8.76867273 14.87187463 10.38944491 8.02869321 15.8125 2.3125 C19.21666766 0.33333275 21.55742437 -0.18202456 25.5 -0.25 C28.11947536 0.47763205 30.07271808 1.43926776 32.5 2.75 C34.23685053 6.22370107 33.96115112 9.95190812 33.5 13.75 C31.27658389 18.11448348 28.62122951 21.10063817 24.5 23.75 C21.1875 24.5 21.1875 24.5 18.5 24.75 C22.38067602 26.22465689 24.68757314 26.96873031 28.75 25.875 C32.44200182 23.0220895 33.23741453 20.06172937 34.5 15.75 C35.11816439 13.78879987 35.74928817 11.83239657 36.38842773 9.87792969 C36.83470857 8.51047736 37.27187001 7.1400122 37.69946289 5.76660156 C38.24324419 4.07522007 38.86586924 2.40962274 39.5 0.75 C40.16 0.42 40.82 0.09 41.5 -0.25 C43.625 0.6875 43.625 0.6875 45.5 1.75 C46.49 1.09 47.48 0.43 48.5 -0.25 C50.91015625 -0.3671875 50.91015625 -0.3671875 53.5625 -0.125 C54.44035156 -0.06054688 55.31820312 0.00390625 56.22265625 0.0703125 C58.5 0.75 58.5 0.75 59.8515625 2.48828125 C60.64880418 5.2690218 60.39971183 6.98472105 59.8125 9.8125 C59.61527344 10.76898438 59.41804688 11.72546875 59.21484375 12.7109375 C58.10529172 17.42804939 56.85016765 22.09642218 55.5 26.75 C60.01135667 24.55528594 61.56273348 22.33826282 63.5 17.75 C64.985 18.245 64.985 18.245 66.5 18.75 C67.1592672 24.0241376 65.56928516 26.84539559 62.7890625 31.11328125 C61.5 32.75 61.5 32.75 59.5 33.75 C57.22265625 33.98828125 57.22265625 33.98828125 54.5625 34.0625 C53.24958984 34.11857422 53.24958984 34.11857422 51.91015625 34.17578125 C49.5 33.75 49.5 33.75 47.6796875 32.0078125 C44.60405744 26.12134173 47.75058475 18.55902244 49.5625 12.625 C50.19893802 10.66359316 50.84148485 8.70410541 51.5 6.75 C43.41266029 13.48944976 41.73674745 23.88797714 39.5 33.75 C36.45613276 33.83226668 34.42824652 33.72608217 31.5 32.75 C30.51 33.08 29.52 33.41 28.5 33.75 C16.11064288 34.75901306 16.11064288 34.75901306 11.6875 31.75 C10.965625 31.09 10.24375 30.43 9.5 29.75 C8.5925 30.41 7.685 31.07 6.75 31.75 C1.62166748 34.67450734 -3.76710023 34.55991105 -9.5 33.75 C-12.69275814 32.4608486 -14.92155066 30.90689868 -16.5 27.75 C-17.33944244 18.8279261 -17.00274043 11.12077599 -11.5 3.75 C-7.77485341 0.54549398 -4.88222985 -0.48822299 0 0 Z M-3.5 5.75 C-4.19937202 7.1817616 -4.88412718 8.62067032 -5.5625 10.0625 C-5.94535156 10.86300781 -6.32820313 11.66351563 -6.72265625 12.48828125 C-7.79735514 14.87028753 -7.79735514 14.87028753 -6.5 17.75 C-3.36809018 16.6700311 -2.49400788 15.74049526 -0.6875 12.875 C0.49119908 9.77316031 0.76070809 8.7298555 -0.5 5.75 C-1.49 5.75 -2.48 5.75 -3.5 5.75 Z M22.5 5.75 C21.79773859 6.99176695 21.11370891 8.24385599 20.4375 9.5 C20.05464844 10.19609375 19.67179687 10.8921875 19.27734375 11.609375 C18.3687594 14.11140628 18.61663163 15.2832355 19.5 17.75 C23.71422242 14.86658466 25.26075855 12.70696581 26.5 7.75 C25.18 7.09 23.86 6.43 22.5 5.75 Z " fill="#000000" transform="translate(53.5,16.25)"/>
<path d="M0 0 C0.969375 0.165 1.93875 0.33 2.9375 0.5 C5.9052331 1.29133785 5.9052331 1.29133785 8 0 C10.3125 0.015625 10.3125 0.015625 13 0.25 C14.3303125 0.35054687 14.3303125 0.35054687 15.6875 0.453125 C18 1 18 1 20 4 C20.31246626 11.70750101 17.84601821 19.59270679 16 27 C17.32 26.67 18.64 26.34 20 26 C20.17015625 25.36835937 20.3403125 24.73671875 20.515625 24.0859375 C21.03166364 22.18098634 21.55296747 20.27745746 22.078125 18.375 C22.73124108 15.98393097 23.36471406 13.58745667 23.984375 11.1875 C24.31953125 9.929375 24.6546875 8.67125 25 7.375 C25.309375 6.18648437 25.61875 4.99796875 25.9375 3.7734375 C26.4634375 2.40058594 26.4634375 2.40058594 27 1 C30 0 30 0 32.1875 0.9375 C32.785625 1.288125 33.38375 1.63875 34 2 C34.99 1.34 35.98 0.68 37 0 C39.19140625 -0.046875 39.19140625 -0.046875 41.5625 0.25 C42.74005859 0.38148437 42.74005859 0.38148437 43.94140625 0.515625 C46 1 46 1 48 3 C48.40832474 8.86966821 47.54591027 13.85951657 46 19.5 C45.71382812 20.59054688 45.71382812 20.59054688 45.421875 21.703125 C44.95662755 23.47106531 44.47956407 25.23588933 44 27 C45.98706733 26.58013079 45.98706733 26.58013079 48 25 C49.29240316 22.35457585 50.09287625 19.56541249 50.9375 16.75 C52.7424505 10.75406756 54.51243536 6.47382018 59 2 C63.67023663 -0.48163554 68.98707003 -0.37609842 74 1 C76.53362385 3.19580734 76.96865463 4.87944088 77.8125 8.125 C78.18690377 15.862678 76.46002895 23.56926058 72 30 C67.54985969 34.3416003 63.51277368 34.44189464 57.5859375 34.43359375 C54.63411641 33.93865094 53.21764082 32.96256007 51 31 C50.61972656 31.48855469 50.23945313 31.97710937 49.84765625 32.48046875 C47.32413461 34.55583856 45.66510682 34.36837069 42.4375 34.3125 C40.98150391 34.30669922 40.98150391 34.30669922 39.49609375 34.30078125 C37 34 37 34 35 32 C33.53637007 23.7628269 36.50231216 15.73837216 39 8 C38.01 8 37.02 8 36 8 C34.30669716 12.08430915 32.88105692 16.23992397 31.5 20.4375 C31.28730469 21.08009766 31.07460937 21.72269531 30.85546875 22.38476562 C30.23608554 24.25621489 29.61802369 26.12810133 29 28 C28.33400836 30.00022488 27.66759381 32.00030929 27 34 C24.06097651 34.13481759 21.12810441 34.23399416 18.1875 34.3125 C17.35412109 34.35439453 16.52074219 34.39628906 15.66210938 34.43945312 C13.34655705 34.48595016 11.27105537 34.45724411 9 34 C6.8828125 31.83984375 6.8828125 31.83984375 6 29 C6.07421875 26.203125 6.07421875 26.203125 6.6875 23.25 C6.89503906 22.2084375 7.10257813 21.166875 7.31640625 20.09375 C7.54199219 19.0728125 7.76757812 18.051875 8 17 C8.19464844 16.0821875 8.38929688 15.164375 8.58984375 14.21875 C9.04014386 12.14145313 9.51701371 10.06994123 10 8 C6.16318194 11.22455986 4.78362667 14.63715688 3.375 19.3125 C3.17132813 19.95123047 2.96765625 20.58996094 2.7578125 21.24804688 C1.42167784 25.47485749 0.20310137 29.73395706 -1 34 C-3.375 34.125 -3.375 34.125 -6 34 C-8 32 -8 32 -8.33984375 28.62109375 C-8.19226503 22.84201562 -6.31663174 17.52399432 -4.5625 12.0625 C-4.23701172 11.00998047 -3.91152344 9.95746094 -3.57617188 8.87304688 C-1.16171288 1.16171288 -1.16171288 1.16171288 0 0 Z M65 6 C60.45866532 10.97384274 58.8125 17.46326477 58.8125 24.0625 C58.874375 25.361875 58.93625 26.66125 59 28 C60.32 28.33 61.64 28.66 63 29 C63.81752303 27.41925436 64.62881997 25.83528777 65.4375 24.25 C65.88996094 23.36828125 66.34242188 22.4865625 66.80859375 21.578125 C68.96288578 16.9163783 69.09883354 13.13934416 69 8 C67.68 7.34 66.36 6.68 65 6 Z " fill="#000000" transform="translate(151,16)"/>
<path d="M0 0 C5 1 5 1 7 3 C7.43436052 8.29268708 6.44893055 12.82378661 4.8828125 17.83203125 C4.6655954 18.54985275 4.4483783 19.26767426 4.22457886 20.00724792 C3.76684973 21.51203626 3.30438597 23.01539185 2.83740234 24.51733398 C2.12272895 26.81981669 1.42557716 29.12709137 0.73046875 31.43554688 C0.28227211 32.90135458 -0.16691184 34.36686085 -0.6171875 35.83203125 C-0.82560272 36.52158401 -1.03401794 37.21113678 -1.24874878 37.92158508 C-2.17455844 40.87380636 -2.77905115 42.77905115 -5 45 C-8.5 45.25 -8.5 45.25 -12 45 C-14.90527612 42.09472388 -14.71264319 38.78900975 -15.125 34.875 C-15.21136719 34.12089844 -15.29773437 33.36679687 -15.38671875 32.58984375 C-15.59889261 30.72742873 -15.80045763 28.86381069 -16 27 C-18.11503791 30.69655275 -19.08053239 34.65723434 -20.125 38.75 C-20.39763672 39.79607422 -20.39763672 39.79607422 -20.67578125 40.86328125 C-21.12116452 42.57449065 -21.56112516 44.28710983 -22 46 C-24.375 46.125 -24.375 46.125 -27 46 C-29 44 -29 44 -29.24584961 40.37060547 C-29.13393442 36.10750668 -28.24011205 32.15541761 -27.06640625 28.0703125 C-26.77031715 26.99570267 -26.77031715 26.99570267 -26.46824646 25.89938354 C-25.84252805 23.63847554 -25.20253222 21.38189218 -24.5625 19.125 C-24.13647693 17.588789 -23.71133868 16.05233232 -23.28710938 14.515625 C-20.1942369 3.38847379 -20.1942369 3.38847379 -19 1 C-15.28400809 0.79913557 -14.22791555 0.8480563 -11 3 C-10.3046875 5.72265625 -10.3046875 5.72265625 -9.875 9.0625 C-9.65457031 10.68865234 -9.65457031 10.68865234 -9.4296875 12.34765625 C-8.93377962 16.56287322 -8.46870318 20.78167141 -8 25 C-5.36 16.75 -2.72 8.5 0 0 Z " fill="#000000" transform="translate(34,4)"/>
<path d="M0 0 C2.375 0.3125 2.375 0.3125 5 1 C7.78593714 5.17890572 6.92734403 8.29128353 6 13 C4.60817835 18.55928345 3.03456803 24.05932798 1.4375 29.5625 C1.00780103 31.06296147 0.57875898 32.56361123 0.15039062 34.06445312 C-0.89217501 37.71185137 -1.94360957 41.35658294 -3 45 C-5.31 44.67 -7.62 44.34 -10 44 C-11.37342196 38.58954985 -10.47425705 34.80517789 -8.9453125 29.609375 C-8.61380692 28.43063812 -8.61380692 28.43063812 -8.27560425 27.22808838 C-7.57030455 24.73193509 -6.84769777 22.24116474 -6.125 19.75 C-5.64604139 18.06020554 -5.16816519 16.37010389 -4.69140625 14.6796875 C-1.2137109 2.42742179 -1.2137109 2.42742179 0 0 Z " fill="#000000" transform="translate(141,4)"/>
<path d="M0 0 C4.75 0.75 4.75 0.75 7 3 C7.31537716 7.33643601 7.44897847 9.32653229 5 13 C2.5 13.3125 2.5 13.3125 0 13 C-2 11 -2 11 -2.01171875 8.90625 C-1.90472656 8.1121875 -1.79773438 7.318125 -1.6875 6.5 C-1.58824219 5.7059375 -1.48898437 4.911875 -1.38671875 4.09375 C-1 2 -1 2 0 0 Z " fill="#000000" transform="translate(302,3)"/>
</svg>
